<svg width="27" height="25" viewBox="0 0 27 25" fill="none" xmlns="http://www.w3.org/2000/svg">
<path d="M9.50241 14.6001C11.0167 13.0858 11.4208 12.009 11.8483 10.8675C12.3088 9.63961 12.7854 8.37008 14.512 6.64265C16.2385 4.91522 17.5089 4.43909 18.7372 3.97858C19.7737 3.58796 20.7615 3.21122 22.0701 2.0094L20.4351 0.38657C20.2067 0.161747 19.9056 0.0258446 19.5858 0.00332666C19.2661 -0.0191913 18.9489 0.0731542 18.6912 0.26374C18.0992 0.702108 17.5996 0.888306 16.9117 1.14482C10.7212 3.45124 9.08314 8.30237 8.70945 9.29239C7.41821 12.7138 4.82273 13.4018 4.42472 13.5498C3.34573 13.9517 2.04929 14.4343 0.472034 15.7355C-0.129528 16.2325 -0.156872 17.1439 0.394343 17.6913L1.94643 19.2325C3.4729 17.8176 4.64478 17.3675 5.77325 16.9439C6.91344 16.5168 7.98939 16.114 9.50241 14.6001ZM24.6066 4.53067L23.0549 2.98943C21.5276 4.40567 20.3561 4.85575 19.2246 5.28067C18.0849 5.70818 17.0085 6.11226 15.4942 7.62442C13.9798 9.13657 13.5762 10.2151 13.1504 11.3571C12.6886 12.5867 12.2116 13.8549 10.4846 15.5814C8.75762 17.308 7.48983 17.7833 6.26153 18.2429C5.22594 18.6335 4.23853 19.0094 2.93167 20.2104L4.56709 21.8349C4.79556 22.0597 5.09676 22.1955 5.41646 22.2179C5.73617 22.2404 6.05338 22.148 6.31101 21.9573C6.90129 21.5207 7.39998 21.3349 8.08792 21.0788C14.2598 18.7785 15.9004 13.9564 16.2884 12.9326C17.5788 9.51287 20.1743 8.82364 20.5736 8.67433C21.653 8.27199 22.9495 7.78891 24.528 6.4864C25.1309 5.9916 25.1578 5.07754 24.6066 4.53067Z" fill="#F7D4BD"/>
<path d="M11.5024 16.6001C13.0167 15.0858 13.4208 14.009 13.8483 12.8675C14.3088 11.6396 14.7854 10.3701 16.512 8.64265C18.2385 6.91522 19.5089 6.43909 20.7372 5.97858C21.7737 5.58796 22.7615 5.21122 24.0701 4.0094L22.4351 2.38657C22.2067 2.16175 21.9056 2.02584 21.5858 2.00333C21.2661 1.98081 20.9489 2.07315 20.6912 2.26374C20.0992 2.70211 19.5996 2.88831 18.9117 3.14482C12.7212 5.45124 11.0831 10.3024 10.7094 11.2924C9.41821 14.7138 6.82273 15.4018 6.42472 15.5498C5.34573 15.9517 4.04929 16.4343 2.47203 17.7355C1.87047 18.2325 1.84313 19.1439 2.39434 19.6913L3.94643 21.2325C5.4729 19.8176 6.64478 19.3675 7.77325 18.9439C8.91344 18.5168 9.98939 18.114 11.5024 16.6001ZM26.6066 6.53067L25.0549 4.98943C23.5276 6.40567 22.3561 6.85575 21.2246 7.28067C20.0849 7.70818 19.0085 8.11226 17.4942 9.62442C15.9798 11.1366 15.5762 12.2151 15.1504 13.3571C14.6886 14.5867 14.2116 15.8549 12.4846 17.5814C10.7576 19.308 9.48983 19.7833 8.26153 20.2429C7.22594 20.6335 6.23853 21.0094 4.93167 22.2104L6.56709 23.8349C6.79556 24.0597 7.09676 24.1955 7.41646 24.2179C7.73617 24.2404 8.05338 24.148 8.31101 23.9573C8.90129 23.5207 9.39998 23.3349 10.0879 23.0788C16.2598 20.7785 17.9004 15.9564 18.2884 14.9326C19.5788 11.5129 22.1743 10.8236 22.5736 10.6743C23.653 10.272 24.9495 9.78891 26.528 8.4864C27.1309 7.9916 27.1578 7.07754 26.6066 6.53067Z" fill="#F7D4BD"/>
</svg>
