<svg width="14" height="14" viewBox="0 0 14 14" fill="none" xmlns="http://www.w3.org/2000/svg">
<g clip-path="url(#clip0_51_5331)">
<path d="M13.125 7C13.125 5.54099 12.6041 4.1299 11.6562 3.02076C10.7084 1.91161 9.39566 1.17726 7.95447 0.949901C6.51329 0.72254 5.03828 1.0171 3.79496 1.78056C2.55164 2.54402 1.62168 3.72623 1.1725 5.11437C1.15131 5.17026 1.1418 5.2299 1.14455 5.2896C1.1473 5.34931 1.16225 5.40782 1.18849 5.46152C1.21472 5.51523 1.25169 5.56298 1.29709 5.60185C1.3425 5.64071 1.39539 5.66986 1.4525 5.6875C1.52528 5.70926 1.60284 5.70926 1.67562 5.6875C1.70021 5.69202 1.72541 5.69202 1.75 5.6875H2.45875C2.55879 5.68701 2.65695 5.71464 2.74204 5.76724C2.82713 5.81984 2.89572 5.89529 2.94 5.985L3.3775 6.83375C3.4604 6.99999 3.57537 7.1482 3.71577 7.26984C3.85618 7.39147 4.01926 7.48414 4.19563 7.5425C4.332 7.58834 4.44505 7.68569 4.51063 7.81375C4.5418 7.87721 4.56017 7.9462 4.56468 8.01676C4.56918 8.08733 4.55973 8.15809 4.53688 8.225L4.48438 8.39125C4.45615 8.47112 4.41143 8.54416 4.35312 8.60562L4.19563 8.75C3.96439 8.98131 3.82056 9.28567 3.78864 9.61118C3.75673 9.93668 3.83872 10.2632 4.02062 10.535L4.13437 10.71C4.18581 10.7892 4.21604 10.8803 4.22217 10.9745C4.2283 11.0687 4.21012 11.1629 4.16937 11.2481L4.10375 11.375C3.38071 10.8968 2.78735 10.2469 2.37663 9.48353C1.96592 8.72012 1.75063 7.86688 1.75 7C1.75 6.88397 1.70391 6.77269 1.62186 6.69064C1.53981 6.60859 1.42853 6.5625 1.3125 6.5625C1.19647 6.5625 1.08519 6.60859 1.00314 6.69064C0.921094 6.77269 0.875 6.88397 0.875 7C0.875 8.62445 1.52031 10.1824 2.66897 11.331C3.81763 12.4797 5.37555 13.125 7 13.125C8.62445 13.125 10.1824 12.4797 11.331 11.331C12.4797 10.1824 13.125 8.62445 13.125 7ZM4.86062 10.2244L4.74688 10.0494C4.67756 9.94545 4.64624 9.82079 4.6582 9.69644C4.67015 9.5721 4.72466 9.45569 4.8125 9.36687L4.95687 9.2225C5.11365 9.06834 5.23203 8.87952 5.3025 8.67125L5.355 8.505C5.41397 8.32833 5.43755 8.14178 5.42438 7.956C5.41122 7.77022 5.36157 7.58885 5.27828 7.42227C5.19498 7.25568 5.07968 7.10714 4.93895 6.98514C4.79823 6.86314 4.63484 6.77007 4.45812 6.71125C4.39083 6.68912 4.32867 6.65371 4.27531 6.60711C4.22196 6.56052 4.17849 6.50369 4.1475 6.44L3.71 5.59562C3.59428 5.36213 3.41606 5.16531 3.19516 5.02706C2.97426 4.8888 2.71934 4.81453 2.45875 4.8125H2.23125C2.52196 4.17236 2.93931 3.59774 3.45813 3.12328C3.97695 2.64882 4.5865 2.28436 5.25 2.05187V2.38437C5.25 2.58833 5.29017 2.7903 5.36822 2.97873C5.44628 3.16716 5.56068 3.33838 5.7049 3.4826C5.84912 3.62682 6.02034 3.74122 6.20877 3.81927C6.3972 3.89733 6.59917 3.9375 6.80312 3.9375C6.92076 3.93741 7.03645 3.96754 7.1391 4.02499C7.24176 4.08245 7.32793 4.16531 7.38937 4.26562L7.7525 4.87812C7.98069 5.25663 8.28809 5.58126 8.65361 5.82972C9.01913 6.07818 9.43409 6.24458 9.87 6.3175L10.465 6.41812H10.5394C10.6436 6.41964 10.7449 6.38389 10.8252 6.31732C10.9054 6.25074 10.9592 6.15772 10.9769 6.055C10.9869 5.99809 10.9856 5.93976 10.9729 5.88337C10.9603 5.82699 10.9366 5.77366 10.9033 5.72648C10.8699 5.67929 10.8275 5.63918 10.7786 5.60846C10.7297 5.57774 10.6751 5.55702 10.6181 5.5475L10.0188 5.45125C9.70872 5.39815 9.41379 5.27883 9.15407 5.1014C8.89435 4.92397 8.67594 4.69262 8.51375 4.42312L8.14625 3.81062C8.00558 3.58097 7.80807 3.39147 7.5728 3.26042C7.33752 3.12937 7.07243 3.06121 6.80312 3.0625C6.62363 3.06135 6.45181 2.98954 6.32489 2.86261C6.19796 2.73569 6.12615 2.56387 6.125 2.38437V1.82437C6.87773 1.69714 7.64915 1.7356 8.3855 1.93706C9.12184 2.13853 9.80539 2.49816 10.3885 2.99088C10.9716 3.48361 11.4402 4.09758 11.7617 4.78999C12.0832 5.4824 12.2499 6.23659 12.25 7C12.2535 7.75485 12.0922 8.50138 11.7775 9.1875L11.1562 9.03C10.7797 8.93742 10.3838 8.9629 10.0222 9.10299C9.66062 9.24309 9.35088 9.49101 9.135 9.81312C8.99929 10.0291 8.78662 10.1855 8.54 10.2506L8.1725 10.3425C7.84154 10.4252 7.53928 10.5962 7.29807 10.8374C7.05686 11.0787 6.88578 11.3809 6.80312 11.7119L6.66313 12.25C6.04536 12.212 5.43937 12.0638 4.87375 11.8125L4.94813 11.6594C5.06282 11.4341 5.11518 11.1823 5.0998 10.93C5.08441 10.6776 5.00184 10.434 4.86062 10.2244ZM7.56875 12.2194L7.65188 11.8869C7.69633 11.7093 7.78818 11.5471 7.91764 11.4176C8.04709 11.2882 8.20928 11.1963 8.38688 11.1519L8.75 11.06C9.20508 10.9466 9.6014 10.6673 9.86125 10.2769C9.97486 10.1009 10.1401 9.96441 10.3344 9.88608C10.5286 9.80775 10.7424 9.79144 10.9462 9.83937L11.3356 9.94C10.9102 10.57 10.3531 11.1001 9.70267 11.4936C9.0523 11.8872 8.32421 12.1348 7.56875 12.2194Z" fill="#5ED7B3"/>
</g>
<defs>
<clipPath id="clip0_51_5331">
<rect width="14" height="14" fill="white"/>
</clipPath>
</defs>
</svg>
