<svg width="14" height="14" viewBox="0 0 14 14" fill="none" xmlns="http://www.w3.org/2000/svg">
<path d="M2.9165 5.83339V9.33986C2.9165 9.54928 2.9165 9.65393 2.94838 9.74639C2.97658 9.82811 3.02259 9.9026 3.08309 9.96432C3.15151 10.0342 3.24515 10.081 3.43244 10.1747L6.58246 11.7497C6.73547 11.8262 6.812 11.8645 6.89227 11.8795C6.96338 11.8928 7.0363 11.8928 7.1074 11.8795C7.18767 11.8645 7.2642 11.8262 7.41721 11.7497L10.5672 10.1747C10.7545 10.081 10.8481 10.0342 10.9166 9.96432C10.9771 9.9026 11.0231 9.82811 11.0513 9.74639C11.0832 9.65393 11.0832 9.54928 11.0832 9.33986V5.83339M1.1665 4.95836L6.79112 2.14605C6.86765 2.10779 6.90592 2.08866 6.94605 2.08113C6.98158 2.07446 7.0181 2.07446 7.05362 2.08113C7.09375 2.08866 7.13202 2.10779 7.20855 2.14605L12.8332 4.95836L7.20855 7.7707C7.13202 7.80896 7.09375 7.8281 7.05362 7.83562C7.0181 7.84227 6.98158 7.84227 6.94605 7.83562C6.90592 7.8281 6.86765 7.80896 6.79112 7.7707L1.1665 4.95836Z" stroke="#5ED7B3" stroke-linecap="round" stroke-linejoin="round"/>
</svg>
