<svg width="41" height="41" viewBox="0 0 41 41" fill="none" xmlns="http://www.w3.org/2000/svg">
<g clip-path="url(#clip0_229_1851)">
<path d="M20.5002 25.625C23.3306 25.625 25.6252 23.3305 25.6252 20.5C25.6252 17.6695 23.3306 15.375 20.5002 15.375C17.6697 15.375 15.3752 17.6695 15.3752 20.5C15.3752 23.3305 17.6697 25.625 20.5002 25.625Z" stroke="#5ED7B3" stroke-width="4" stroke-linecap="round" stroke-linejoin="round"/>
<path d="M33.1418 25.625C32.9144 26.1403 32.8466 26.7118 32.9471 27.266C33.0476 27.8202 33.3117 28.3315 33.7056 28.7342L33.8081 28.8367C34.1258 29.154 34.3778 29.5308 34.5497 29.9456C34.7216 30.3604 34.8101 30.805 34.8101 31.254C34.8101 31.703 34.7216 32.1476 34.5497 32.5623C34.3778 32.9771 34.1258 33.3539 33.8081 33.6712C33.4908 33.9889 33.1139 34.2409 32.6992 34.4129C32.2844 34.5848 31.8398 34.6733 31.3908 34.6733C30.9418 34.6733 30.4972 34.5848 30.0824 34.4129C29.6676 34.2409 29.2908 33.9889 28.9735 33.6712L28.871 33.5687C28.4684 33.1749 27.957 32.9107 27.4028 32.8102C26.8487 32.7098 26.2771 32.7776 25.7618 33.005C25.2566 33.2216 24.8256 33.5811 24.5221 34.0395C24.2186 34.4978 24.0557 35.0349 24.0535 35.5846V35.875C24.0535 36.7812 23.6935 37.6502 23.0528 38.2909C22.412 38.9317 21.543 39.2917 20.6368 39.2917C19.7307 39.2917 18.8616 38.9317 18.2209 38.2909C17.5801 37.6502 17.2202 36.7812 17.2202 35.875V35.7212C17.2069 35.1558 17.0239 34.6074 16.6949 34.1474C16.3658 33.6873 15.906 33.3369 15.3752 33.1417C14.8599 32.9143 14.2883 32.8464 13.7342 32.9469C13.18 33.0474 12.6686 33.3116 12.266 33.7054L12.1635 33.8079C11.8462 34.1256 11.4694 34.3776 11.0546 34.5495C10.6398 34.7215 10.1952 34.81 9.74621 34.81C9.2972 34.81 8.8526 34.7215 8.43783 34.5495C8.02305 34.3776 7.64623 34.1256 7.32891 33.8079C7.01124 33.4906 6.75923 33.1138 6.58729 32.699C6.41535 32.2842 6.32685 31.8396 6.32685 31.3906C6.32685 30.9416 6.41535 30.497 6.58729 30.0822C6.75923 29.6675 7.01124 29.2906 7.32891 28.9733L7.43141 28.8708C7.82525 28.4682 8.08944 27.9568 8.18992 27.4027C8.2904 26.8485 8.22257 26.2769 7.99516 25.7617C7.77861 25.2564 7.41904 24.8255 6.96071 24.5219C6.50238 24.2184 5.9653 24.0555 5.41558 24.0533H5.12516C4.21901 24.0533 3.34996 23.6934 2.70921 23.0526C2.06847 22.4119 1.7085 21.5428 1.7085 20.6367C1.7085 19.7305 2.06847 18.8615 2.70921 18.2207C3.34996 17.58 4.21901 17.22 5.12516 17.22H5.27891C5.84436 17.2068 6.39275 17.0237 6.8528 16.6947C7.31284 16.3657 7.66326 15.9058 7.8585 15.375C8.0859 14.8597 8.15374 14.2882 8.05325 13.734C7.95277 13.1798 7.68858 12.6684 7.29475 12.2658L7.19225 12.1633C6.87458 11.846 6.62257 11.4692 6.45063 11.0544C6.27868 10.6396 6.19018 10.195 6.19018 9.74604C6.19018 9.29703 6.27868 8.85243 6.45063 8.43766C6.62257 8.02288 6.87458 7.64606 7.19225 7.32875C7.50956 7.01108 7.88638 6.75907 8.30116 6.58712C8.71594 6.41518 9.16054 6.32668 9.60954 6.32668C10.0585 6.32668 10.5031 6.41518 10.9179 6.58712C11.3327 6.75907 11.7095 7.01108 12.0268 7.32875L12.1293 7.43125C12.5319 7.82508 13.0433 8.08927 13.5975 8.18975C14.1517 8.29024 14.7232 8.2224 15.2385 7.995H15.3752C15.8804 7.77844 16.3114 7.41887 16.6149 6.96054C16.9184 6.50221 17.0813 5.96513 17.0835 5.41541V5.125C17.0835 4.21884 17.4435 3.3498 18.0842 2.70905C18.725 2.0683 19.594 1.70833 20.5002 1.70833C21.4063 1.70833 22.2754 2.0683 22.9161 2.70905C23.5569 3.3498 23.9168 4.21884 23.9168 5.125V5.27875C23.919 5.82846 24.0819 6.36555 24.3854 6.82387C24.689 7.2822 25.1199 7.64178 25.6252 7.85833C26.1404 8.08573 26.712 8.15357 27.2662 8.05309C27.8203 7.9526 28.3317 7.68841 28.7343 7.29458L28.8368 7.19208C29.1541 6.87441 29.531 6.6224 29.9457 6.45046C30.3605 6.27852 30.8051 6.19002 31.2541 6.19002C31.7031 6.19002 32.1477 6.27852 32.5625 6.45046C32.9773 6.6224 33.3541 6.87441 33.6714 7.19208C33.9891 7.5094 34.2411 7.88621 34.413 8.30099C34.585 8.71577 34.6735 9.16037 34.6735 9.60937C34.6735 10.0584 34.585 10.503 34.413 10.9178C34.2411 11.3325 33.9891 11.7093 33.6714 12.0267L33.5689 12.1292C33.1751 12.5318 32.9109 13.0431 32.8104 13.5973C32.7099 14.1515 32.7778 14.7231 33.0052 15.2383V15.375C33.2217 15.8803 33.5813 16.3112 34.0396 16.6147C34.498 16.9183 35.035 17.0811 35.5847 17.0833H35.8752C36.7813 17.0833 37.6504 17.4433 38.2911 18.084C38.9319 18.7248 39.2918 19.5938 39.2918 20.5C39.2918 21.4062 38.9319 22.2752 38.2911 22.9159C37.6504 23.5567 36.7813 23.9167 35.8752 23.9167H35.7214C35.1717 23.9189 34.6346 24.0817 34.1763 24.3853C33.718 24.6888 33.3584 25.1197 33.1418 25.625Z" stroke="#5ED7B3" stroke-width="4" stroke-linecap="round" stroke-linejoin="round"/>
</g>
<defs>
<clipPath id="clip0_229_1851">
<rect width="41" height="41" fill="white"/>
</clipPath>
</defs>
</svg>
