<svg width="20" height="20" viewBox="0 0 20 20" fill="none" xmlns="http://www.w3.org/2000/svg">
<path d="M9.99978 2.92892L12.8676 6.05277L16.7248 7.81491L14.64 11.5077L14.156 15.7206L9.99978 14.879L5.84351 15.7206L5.35954 11.5077L3.27479 7.81491L7.13195 6.05277L9.99978 2.92892Z" fill="#5ED7B3"/>
<path d="M15 5L14.819 9.23675L16.3004 13.2102L12.215 14.3473L8.89384 16.984L6.55 13.45L3.01599 11.1062L5.65275 7.78496L6.7898 3.69963L10.7632 5.18103L15 5Z" fill="#5ED7B3"/>
<path d="M16.1239 6.46445L14.8525 10.51L15.255 14.7315L11.0146 14.7724L7.12413 16.4597L5.77482 12.4395L2.96786 9.26086L6.37436 6.73527L8.53003 3.08344L11.9847 5.54277L16.1239 6.46445Z" fill="#5ED7B3"/>
<path d="M13.5353 3.87626L14.457 8.0155L16.9164 11.4701L13.2645 13.6258L10.7389 17.0323L7.56029 14.2254L3.54007 12.8761L5.22739 8.98558L5.26834 4.74516L9.48981 5.14768L13.5353 3.87626Z" fill="#5ED7B3"/>
<path d="M11.8301 3.16988L13.7917 6.92953L17.0614 9.62994L14.0919 12.6573L12.534 16.6014L8.73721 14.7128L4.50475 14.45L5.12765 10.2554L4.0697 6.14883L8.25151 5.44503L11.8301 3.16988Z" fill="#5ED7B3"/>
<ellipse cx="10.228" cy="9.54379" rx="4.56198" ry="3.87768" fill="white"/>
<path d="M15.7023 9.99999C15.7023 13.1494 13.1492 15.7025 9.99984 15.7025C6.85044 15.7025 4.29736 13.1494 4.29736 9.99999C4.29736 6.85059 6.85044 4.29752 9.99984 4.29752C13.1492 4.29752 15.7023 6.85059 15.7023 9.99999ZM9.34024 13.0194L13.5711 8.78854C13.7148 8.64487 13.7148 8.41192 13.5711 8.26825L13.0508 7.74797C12.9072 7.60428 12.6742 7.60428 12.5305 7.74797L9.08008 11.1984L7.46916 9.58746C7.32549 9.44379 7.09254 9.44379 6.94885 9.58746L6.42857 10.1077C6.28491 10.2514 6.28491 10.4844 6.42857 10.628L8.81993 13.0194C8.96362 13.1631 9.19655 13.1631 9.34024 13.0194Z" fill="#5ED7B3"/>
</svg>
